<svg version="1.1" id="Layer_1" xmlns="http://www.w3.org/2000/svg" xmlns:xlink="http://www.w3.org/1999/xlink" x="0px" y="0px" viewBox="0 0 50 50" style="enable-background:new 0 0 420 420;" xml:space="preserve" width="50" height="50"><g><path style="fill:#F5C525;" points="420,210 375.774,247.857 399.238,301.145 342.926,315.986 340.945,374.184 283.764,363.211 
		256.724,414.779 210,380 163.276,414.779 136.236,363.211 79.055,374.184 77.073,315.986 20.762,301.144 44.226,247.858 0,210 
		44.226,172.143 20.762,118.855 77.074,104.014 79.055,45.816 136.236,56.789 163.276,5.221 210,40 256.723,5.221 283.764,56.789 
		340.945,45.816 342.927,104.014 399.238,118.856 375.774,172.142 	" d="M50 25L44.735 29.507L47.528 35.851L40.825 37.617L40.589 44.546L33.781 43.239L30.562 49.378L25 45.238L19.438 49.378L16.219 43.239L9.411 44.546L9.175 37.617L2.472 35.85L5.265 29.507L0 25L5.265 20.493L2.472 14.149L9.175 12.383L9.411 5.454L16.219 6.761L19.438 0.622L25 4.762L30.562 0.622L33.781 6.761L40.589 5.454L40.825 12.383L47.528 14.15L44.735 20.493Z"/><path style="fill:#F8A805;" cx="210" cy="210" r="140" d="M41.667 25A16.667 16.667 0 0 1 25 41.667A16.667 16.667 0 0 1 8.333 25A16.667 16.667 0 0 1 41.667 25z"/></g></svg>